<?xml version="1.0" standalone="no"?>
<!DOCTYPE svg PUBLIC "-//W3C//DTD SVG 20010904//EN"
 "http://www.w3.org/TR/2001/REC-SVG-20010904/DTD/svg10.dtd">
<svg version="1.0" xmlns="http://www.w3.org/2000/svg"
 width="512.000000pt" height="512.000000pt" viewBox="0 0 512.000000 512.000000"
 preserveAspectRatio="xMidYMid meet">
<metadata>
Created by potrace 1.14, written by Peter Selinger 2001-2017
</metadata>
<g transform="translate(0.000000,512.000000) scale(0.100000,-0.100000)"
fill="#000000" stroke="none">
<path d="M1343 4368 c-29 -5 -53 -14 -53 -18 0 -5 -6 -7 -13 -4 -46 17 -360
-156 -341 -188 4 -6 3 -8 -3 -5 -14 9 -76 -51 -67 -65 4 -6 3 -8 -3 -5 -12 8
-68 -52 -85 -89 -6 -13 -15 -24 -21 -24 -5 0 -6 -7 -3 -16 3 -8 2 -13 -3 -10
-11 7 -84 -131 -76 -144 3 -6 2 -10 -4 -10 -12 0 -33 -69 -24 -83 3 -6 1 -7
-4 -4 -6 4 -14 -5 -18 -20 -5 -20 -2 -31 12 -41 17 -13 16 -14 -6 -7 -19 6
-23 4 -18 -9 3 -8 1 -18 -4 -22 -6 -3 -9 -17 -6 -30 2 -13 1 -24 -3 -24 -15 0
-22 -91 -8 -108 7 -9 8 -13 2 -9 -16 9 -21 -22 -22 -144 -1 -94 1 -106 21
-129 12 -13 15 -19 6 -12 -14 11 -16 7 -16 -33 0 -25 3 -45 6 -45 3 0 7 -15 8
-32 6 -89 23 -178 34 -178 5 0 6 -7 3 -15 -4 -8 -1 -22 6 -30 7 -8 10 -15 7
-15 -10 0 15 -75 31 -94 10 -12 12 -16 3 -11 -17 10 -13 -3 51 -168 28 -70 57
-134 65 -142 8 -8 12 -15 9 -15 -7 0 46 -103 57 -111 5 -3 7 -8 5 -11 -5 -7
36 -78 45 -78 4 0 5 -4 2 -10 -3 -5 -1 -10 4 -10 6 0 11 -4 11 -9 0 -23 72
-131 88 -132 10 0 12 -3 4 -6 -6 -2 -9 -9 -6 -15 3 -5 15 -2 27 9 l22 18 -20
-23 -20 -24 22 -18 c12 -10 19 -20 16 -24 -3 -3 2 -8 11 -12 9 -3 16 -11 16
-17 0 -17 81 -117 93 -114 7 1 11 -4 10 -10 -2 -7 5 -22 14 -33 13 -15 20 -17
32 -8 13 10 14 10 4 -2 -18 -19 -16 -33 3 -26 9 3 12 2 9 -5 -9 -14 26 -51 42
-44 8 2 11 0 8 -5 -9 -14 14 -52 27 -44 6 4 8 3 5 -3 -8 -13 57 -76 68 -66 4
5 5 3 2 -3 -6 -11 32 -50 46 -46 4 1 6 -2 5 -7 -2 -5 26 -37 61 -72 36 -35 62
-59 58 -52 -8 13 18 12 30 -2 4 -4 2 -5 -4 -1 -23 13 -14 -6 17 -36 17 -16 36
-26 42 -22 6 4 8 3 5 -3 -4 -6 6 -22 22 -36 22 -19 32 -23 41 -14 10 9 11 9 5
-1 -9 -17 24 -54 42 -47 8 2 11 1 8 -5 -7 -11 30 -32 40 -22 3 4 5 0 3 -8 -2
-9 4 -14 14 -14 11 1 14 -4 11 -13 -5 -12 -1 -14 15 -9 11 4 23 2 27 -3 4 -7
-1 -9 -12 -5 -14 4 -13 1 5 -13 71 -57 97 -73 109 -68 8 2 11 1 8 -5 -3 -5 5
-14 17 -21 13 -7 25 -15 28 -19 8 -12 118 -80 129 -80 5 0 11 -4 13 -8 7 -17
128 -83 139 -76 7 4 9 3 6 -3 -8 -12 209 -127 223 -118 6 3 10 2 10 -4 0 -7
10 -6 30 0 17 6 30 15 30 20 0 5 3 8 8 7 7 -3 123 51 132 61 3 3 23 14 44 24
22 10 63 33 90 51 28 18 65 41 83 51 18 10 30 22 27 27 -3 4 3 8 13 8 22 1 55
24 46 33 -3 4 4 7 16 7 12 0 24 7 27 15 4 8 10 12 15 9 5 -3 9 0 9 5 0 6 5 11
12 11 12 0 116 75 136 99 6 8 12 11 12 6 0 -4 9 0 21 11 19 17 19 19 3 31 -15
11 -14 12 4 10 11 0 18 -5 16 -9 -10 -16 12 -7 28 11 12 14 13 21 5 25 -7 3
-2 3 9 1 16 -4 29 3 49 27 15 18 24 26 20 18 -4 -8 9 1 28 20 19 19 43 40 53
47 10 6 18 16 16 23 -1 6 2 9 7 6 5 -3 24 11 43 32 18 20 54 55 79 77 26 22
46 42 46 45 0 3 32 38 73 78 40 39 70 72 68 72 -3 0 17 24 43 53 27 28 49 55
49 59 0 3 12 20 28 36 40 42 62 74 62 90 0 7 4 11 8 8 9 -5 41 43 39 57 -1 5
6 13 15 18 10 6 18 19 18 30 0 11 4 18 8 15 5 -3 15 7 23 22 8 15 18 30 22 33
4 3 9 15 10 27 0 11 4 19 9 16 4 -2 12 5 18 16 6 11 8 20 5 20 -3 0 3 10 15
22 18 20 18 23 4 39 -10 12 -12 19 -4 24 6 3 9 1 8 -6 -2 -6 2 -13 7 -15 12
-5 41 55 37 75 -2 7 1 10 7 6 10 -5 15 6 13 27 -1 3 5 11 13 18 7 6 11 19 8
27 -4 10 -2 14 4 10 6 -4 13 -1 16 6 27 62 88 213 89 217 2 11 10 36 19 58 5
13 7 28 4 33 -4 5 -2 9 4 9 6 0 13 17 17 38 4 20 10 44 14 52 4 8 10 29 13 47
5 28 4 31 -14 28 -11 -2 -17 0 -14 6 4 5 10 7 15 4 14 -9 28 19 39 79 11 60 8
81 -11 70 -7 -4 -8 -2 -4 5 4 6 12 8 18 5 7 -5 9 -1 5 9 -3 10 -2 17 4 17 16
0 8 72 -10 95 -15 18 -15 19 1 7 9 -7 19 -9 22 -4 10 17 4 122 -8 122 -8 0 -8
2 1 8 12 7 16 99 5 116 -3 5 -6 26 -7 45 -3 58 -4 62 -14 56 -5 -3 -13 -1 -16
5 -4 6 -1 9 7 8 13 -3 15 14 6 59 -5 26 -28 54 -38 48 -5 -3 -11 -1 -14 4 -7
11 13 9 33 -3 11 -7 13 -5 8 6 -3 9 -11 34 -18 57 -6 22 -15 38 -20 36 -4 -3
-5 3 -2 14 3 10 0 22 -6 25 -6 4 -11 16 -11 27 0 10 -5 19 -12 19 -6 0 -9 3
-5 6 7 7 -41 104 -53 104 -5 0 -10 10 -12 23 -2 12 -9 21 -15 20 -8 -2 -10 4
-6 14 4 11 3 14 -5 9 -7 -4 -12 -1 -12 7 0 8 -13 29 -29 46 -16 17 -31 38 -35
46 -3 9 -11 13 -17 9 -7 -4 -9 -3 -6 3 7 10 -22 43 -35 40 -3 -1 -16 11 -28
26 -13 16 -28 26 -37 23 -8 -3 -12 -2 -8 3 3 5 -9 20 -27 32 -17 13 -29 18
-25 13 3 -6 0 -11 -7 -11 -8 0 -12 5 -10 11 2 6 -19 24 -47 40 -42 23 -53 26
-60 15 -7 -11 -9 -10 -9 5 0 12 -5 16 -16 12 -8 -3 -13 -2 -10 3 8 12 -79 35
-95 26 -7 -5 -10 -4 -6 2 8 12 -41 24 -72 18 -12 -2 -21 0 -21 6 0 5 -25 8
-55 8 -49 -1 -54 -3 -43 -18 10 -13 8 -12 -8 2 -11 9 -26 17 -34 17 -10 0 -10
-4 1 -17 13 -17 12 -17 -6 -2 -11 8 -27 15 -35 14 -8 -1 -21 -3 -28 -3 -8 -1
-10 -7 -6 -14 6 -10 4 -10 -7 0 -19 17 -32 15 -25 -5 6 -17 5 -17 -7 -1 -8 10
-17 15 -21 11 -3 -4 -17 -8 -29 -10 -40 -5 -107 -25 -107 -32 0 -4 -9 -7 -20
-8 -28 -2 -150 -62 -150 -74 0 -6 -4 -8 -9 -4 -16 9 -23 -15 -10 -33 12 -16
12 -16 -5 0 -18 16 -22 14 -75 -24 -56 -41 -239 -218 -225 -218 4 0 -3 -9 -16
-20 -13 -11 -19 -20 -14 -20 5 0 -2 -7 -14 -16 -12 -8 -20 -20 -17 -25 4 -5 2
-9 -4 -9 -10 0 -79 -101 -84 -122 -1 -6 -10 -19 -19 -29 -10 -11 -15 -26 -11
-35 4 -10 2 -15 -3 -11 -6 3 -27 -28 -47 -69 -42 -84 -44 -92 -19 -73 15 13
16 12 3 -3 -7 -10 -23 -18 -35 -18 -15 0 -17 3 -8 9 10 6 0 34 -46 122 -33 63
-64 113 -70 112 -6 -2 -9 3 -6 10 2 7 -2 21 -10 32 -12 17 -16 18 -32 5 -17
-14 -18 -13 -7 1 7 9 9 20 5 24 -4 5 -1 5 7 0 9 -5 7 1 -4 19 -9 14 -22 23
-28 19 -5 -3 -7 -1 -4 4 10 15 -55 98 -67 86 -3 -4 -6 1 -6 9 0 21 -40 69 -51
62 -5 -3 -8 -1 -7 4 4 14 -68 82 -87 82 -9 0 -14 4 -11 9 3 4 -3 16 -14 26
-11 10 -20 15 -20 11 0 -4 -11 3 -24 16 -43 41 -70 58 -84 53 -7 -2 -10 0 -7
5 7 11 -69 52 -79 43 -3 -4 -6 -2 -6 4 0 19 -200 90 -220 78 -5 -3 -11 -1 -15
5 -3 5 -13 10 -21 10 -9 0 -12 -5 -8 -12 4 -6 -3 -4 -17 5 -36 26 -45 20 -18
-10 l24 -28 -31 28 c-29 26 -104 41 -89 17 4 -6 10 -8 14 -6 4 3 8 -2 8 -10 0
-11 -5 -10 -22 6 -30 28 -65 27 -60 -1 3 -12 1 -18 -3 -15 -4 4 -7 13 -7 19 0
16 -28 17 -92 5z m71 -6 c3 -5 -1 -9 -9 -9 -8 0 -12 4 -9 9 3 4 7 8 9 8 2 0 6
-4 9 -8z m70 -8 c3 -8 2 -12 -4 -9 -6 3 -10 10 -10 16 0 14 7 11 14 -7z m77
-1 c13 -16 12 -17 -3 -4 -17 13 -22 21 -14 21 2 0 10 -8 17 -17z m2160 -6
c-10 -9 -11 -8 -5 6 3 10 9 15 12 12 3 -3 0 -11 -7 -18z m84 4 c3 -5 2 -12 -3
-15 -5 -3 -9 1 -9 9 0 17 3 19 12 6z m-2105 -5 c0 -2 -8 -10 -17 -17 -16 -13
-17 -12 -4 4 13 16 21 21 21 13z m-466 -24 c3 -5 -1 -9 -9 -9 -8 0 -12 4 -9 9
3 4 7 8 9 8 2 0 6 -4 9 -8z m536 -1 c0 -6 -4 -12 -8 -15 -5 -3 -9 1 -9 9 0 8
4 15 9 15 4 0 8 -4 8 -9z m2154 1 c3 -5 -1 -9 -9 -9 -8 0 -12 4 -9 9 3 4 7 8
9 8 2 0 6 -4 9 -8z m-2099 -21 c3 -5 2 -12 -3 -15 -5 -3 -9 1 -9 9 0 17 3 19
12 6z m-655 -4 c0 -2 -10 -12 -22 -23 l-23 -19 19 23 c18 21 26 27 26 19z
m719 -24 c2 -1 -5 -1 -16 0 -11 0 -20 7 -20 14 0 10 4 10 16 1 9 -7 18 -13 20
-15z m2121 6 c0 -5 -4 -9 -8 -9 -5 0 -9 7 -9 15 0 8 4 12 9 9 4 -3 8 -9 8 -15z
m-700 7 c0 -3 -4 -8 -10 -11 -5 -3 -10 -1 -10 4 0 6 5 11 10 11 6 0 10 -2 10
-4z m757 -41 c0 -8 -4 -12 -9 -9 -5 3 -6 10 -3 15 9 13 12 11 12 -6z m-862
-14 c3 -5 2 -12 -3 -15 -5 -3 -9 1 -9 9 0 17 3 19 12 6z m-105 -66 c-7 -9 -15
-13 -18 -10 -3 3 -12 -1 -21 -8 -14 -11 -14 -10 -2 5 7 10 17 16 21 13 5 -3
11 -1 15 5 3 5 9 10 12 10 3 0 0 -7 -7 -15z m-2130 1 c0 -3 -4 -8 -10 -11 -5
-3 -10 -1 -10 4 0 6 5 11 10 11 6 0 10 -2 10 -4z m1194 -92 c3 -8 2 -12 -4 -9
-6 3 -10 10 -10 16 0 14 7 11 14 -7z m-1304 -14 c-8 -5 -19 -10 -25 -10 -5 0
-3 5 5 10 8 5 20 10 25 10 6 0 3 -5 -5 -10z m2081 -33 c-10 -9 -11 -8 -5 6 3
10 9 15 12 12 3 -3 0 -11 -7 -18z m-2130 -10 c-6 -8 -8 -16 -5 -19 3 -3 1 -9
-4 -12 -6 -3 -9 0 -8 6 2 16 15 38 23 38 3 0 0 -6 -6 -13z m1514 -96 c3 -5 2
-12 -3 -15 -5 -3 -9 1 -9 9 0 17 3 19 12 6z m21 -41 c0 -12 -4 -16 -9 -11 -5
5 -6 14 -3 20 10 15 12 14 12 -9z m-1606 6 c0 -2 -8 -10 -17 -17 -16 -13 -17
-12 -4 4 13 16 21 21 21 13z m3675 -6 c3 -6 -1 -7 -9 -4 -18 7 -21 14 -7 14 6
0 13 -4 16 -10z m-3694 -53 c-10 -9 -11 -8 -5 6 3 10 9 15 12 12 3 -3 0 -11
-7 -18z m3759 -63 c0 -8 -19 -13 -24 -6 -3 5 1 9 9 9 8 0 15 -2 15 -3z m-1985
-124 c3 -6 -1 -7 -9 -4 -18 7 -21 14 -7 14 6 0 13 -4 16 -10z m-1881 -162 c-3
-4 -9 -8 -15 -8 -5 0 -9 4 -9 8 0 5 7 9 15 9 8 0 12 -4 9 -9z m-4 -132 c0 -2
-7 -7 -16 -10 -8 -3 -12 -2 -9 4 6 10 25 14 25 6z m0 -80 c0 -2 -7 -7 -16 -10
-8 -3 -12 -2 -9 4 6 10 25 14 25 6z m3920 -288 c0 -4 -4 -8 -9 -8 -6 0 -12 4
-15 8 -3 5 1 9 9 9 8 0 15 -4 15 -9z m-3876 -96 c3 -5 -1 -9 -9 -9 -8 0 -12 4
-9 9 3 4 7 8 9 8 2 0 6 -4 9 -8z m25 -106 c9 -11 9 -16 -1 -22 -7 -4 -10 -4
-6 1 4 4 3 14 -3 22 -6 7 -9 13 -6 13 2 0 10 -6 16 -14z m71 -192 c0 -8 -19
-13 -24 -6 -3 5 1 9 9 9 8 0 15 -2 15 -3z m3656 -19 c-1 -8 -5 -17 -8 -21 -5
-4 -4 16 1 34 3 9 9 -1 7 -13z m-3645 -32 c13 -16 12 -17 -3 -4 -10 7 -18 15
-18 17 0 8 8 3 21 -13z m24 -61 c-3 -3 -11 0 -18 7 -9 10 -8 11 6 5 10 -3 15
-9 12 -12z m22 -65 c1 -11 1 -18 0 -16 -2 2 -8 11 -15 20 -9 12 -9 16 1 16 7
0 14 -9 14 -20z m3403 -247 c0 -5 -5 -10 -11 -10 -5 0 -7 5 -4 10 3 6 8 10 11
10 2 0 4 -4 4 -10z m-3245 -19 c3 -5 2 -12 -3 -15 -5 -3 -9 1 -9 9 0 17 3 19
12 6z m20 -50 c3 -5 2 -12 -3 -15 -5 -3 -9 1 -9 9 0 17 3 19 12 6z m39 -49 c3
-5 -1 -9 -9 -9 -8 0 -12 4 -9 9 3 4 7 8 9 8 2 0 6 -4 9 -8z m147 -219 c13 -16
12 -17 -3 -4 -10 7 -18 15 -18 17 0 8 8 3 21 -13z m124 -143 c3 -6 -1 -7 -9
-4 -18 7 -21 14 -7 14 6 0 13 -4 16 -10z m79 -78 c3 -5 -1 -9 -9 -9 -8 0 -15
4 -15 9 0 4 4 8 9 8 6 0 12 -4 15 -8z m31 -42 c3 -5 1 -10 -4 -10 -6 0 -11 5
-11 10 0 6 2 10 4 10 3 0 8 -4 11 -10z m2278 -75 c-3 -9 -8 -14 -10 -11 -3 3
-2 9 2 15 9 16 15 13 8 -4z m-2198 -5 c3 -5 1 -10 -4 -10 -6 0 -11 5 -11 10 0
6 2 10 4 10 3 0 8 -4 11 -10z m2096 -87 c13 -16 12 -17 -3 -4 -17 13 -22 21
-14 21 2 0 10 -8 17 -17z m-51 -53 c0 -5 -2 -10 -4 -10 -3 0 -8 5 -11 10 -3 6
-1 10 4 10 6 0 11 -4 11 -10z m-1866 -18 c3 -5 -1 -9 -9 -9 -8 0 -12 4 -9 9 3
4 7 8 9 8 2 0 6 -4 9 -8z m41 -50 c-3 -3 -11 0 -18 7 -9 10 -8 11 6 5 10 -3
15 -9 12 -12z m61 -46 c0 -14 -3 -23 -7 -20 -6 3 -6 22 0 42 3 10 7 -2 7 -22z
m169 -126 c-3 -5 -12 -10 -18 -10 -7 0 -6 4 3 10 19 12 23 12 15 0z m1280 0
c-3 -5 -12 -10 -18 -10 -7 0 -6 4 3 10 19 12 23 12 15 0z m-1248 -35 c0 -8 -4
-12 -9 -9 -5 3 -6 10 -3 15 9 13 12 11 12 -6z m37 -3 c3 -5 -1 -9 -9 -9 -8 0
-12 4 -9 9 3 4 7 8 9 8 2 0 6 -4 9 -8z m51 -42 c3 -6 -1 -7 -9 -4 -18 7 -21
14 -7 14 6 0 13 -4 16 -10z m33 -45 c-3 -3 -9 2 -12 12 -6 14 -5 15 5 6 7 -7
10 -15 7 -18z m42 -15 c0 -5 -2 -10 -4 -10 -3 0 -8 5 -11 10 -3 6 -1 10 4 10
6 0 11 -4 11 -10z m840 -34 c0 -2 -7 -7 -16 -10 -8 -3 -12 -2 -9 4 6 10 25 14
25 6z m-730 -22 c0 -8 -19 -13 -24 -6 -3 5 1 9 9 9 8 0 15 -2 15 -3z m45 -23
c3 -5 2 -12 -3 -15 -5 -3 -9 1 -9 9 0 17 3 19 12 6z m485 -65 c0 -2 -8 -10
-17 -17 -16 -13 -17 -12 -4 4 13 16 21 21 21 13z m-265 -55 c3 -5 2 -12 -3
-15 -5 -3 -9 1 -9 9 0 17 3 19 12 6z m165 3 c0 -8 -19 -13 -24 -6 -3 5 1 9 9
9 8 0 15 -2 15 -3z m-120 -49 c0 -5 -5 -3 -10 5 -5 8 -10 20 -10 25 0 6 5 3
10 -5 5 -8 10 -19 10 -25z"/>
</g>
</svg>
