<?xml version="1.0" standalone="no"?>
<!DOCTYPE svg PUBLIC "-//W3C//DTD SVG 20010904//EN"
 "http://www.w3.org/TR/2001/REC-SVG-20010904/DTD/svg10.dtd">
<svg version="1.0" xmlns="http://www.w3.org/2000/svg"
 width="500.000000pt" height="500.000000pt" viewBox="0 0 500.000000 500.000000"
 preserveAspectRatio="xMidYMid meet">
<metadata>
Created by potrace 1.14, written by Peter Selinger 2001-2017
</metadata>
<g transform="translate(0.000000,500.000000) scale(0.100000,-0.100000)"
fill="#000000" stroke="none">
<path d="M1785 4034 c-63 -16 -92 -30 -127 -62 -69 -62 -96 -144 -77 -234 10
-44 21 -63 68 -110 l56 -56 -67 -97 c-112 -162 -158 -312 -158 -517 0 -105 -2
-114 -36 -190 -72 -159 -70 -287 5 -444 32 -66 55 -99 108 -149 37 -35 82 -72
100 -82 18 -10 33 -21 33 -26 0 -5 -14 -40 -31 -79 -56 -127 -59 -249 -9 -352
10 -23 22 -72 25 -111 12 -124 43 -202 125 -309 43 -56 50 -72 50 -110 0 -66
33 -161 74 -211 55 -67 128 -98 242 -103 144 -7 226 31 291 133 23 37 33 45
59 45 26 0 36 -9 70 -58 58 -85 120 -115 244 -120 80 -3 104 0 154 18 117 44
183 140 193 279 6 72 8 79 47 122 23 25 53 68 68 96 27 50 58 168 58 223 0 16
13 61 29 102 16 40 32 96 36 123 8 66 -15 175 -54 253 l-30 60 45 27 c128 75
235 237 257 388 14 96 -3 196 -48 282 -31 60 -32 67 -38 216 -4 130 -9 167
-32 239 -35 107 -80 198 -139 276 -25 34 -46 67 -46 73 0 6 13 20 30 32 72 54
109 151 90 237 -51 228 -360 269 -474 61 l-31 -56 -40 14 c-235 84 -477 93
-703 26 -48 -14 -95 -27 -104 -30 -12 -4 -23 7 -37 35 -27 53 -77 101 -127
124 -45 19 -116 30 -149 22z m99 -118 c35 -15 82 -68 88 -100 2 -14 -11 -27
-49 -50 -28 -17 -70 -48 -93 -69 l-42 -38 -32 19 c-41 24 -76 77 -76 117 0 64
75 135 143 135 15 0 43 -6 61 -14z m1382 -2 c54 -26 74 -58 74 -119 0 -58 -21
-95 -69 -119 -29 -15 -67 -4 -55 16 4 6 3 8 -3 5 -6 -4 -36 13 -67 38 -32 24
-66 47 -77 50 -13 4 -18 12 -15 22 3 8 6 18 6 23 0 17 55 73 85 86 41 18 80
17 121 -2z m-530 -113 c189 -46 330 -125 469 -266 101 -101 130 -146 186 -288
29 -72 49 -207 49 -326 0 -104 1 -108 38 -176 37 -69 37 -71 37 -185 0 -109
-2 -119 -32 -183 -64 -136 -177 -220 -331 -248 l-53 -10 -50 50 c-129 131
-320 161 -478 75 -57 -31 -65 -33 -80 -20 -28 25 -108 57 -169 66 -120 20
-242 -23 -338 -118 l-54 -53 -63 11 c-134 24 -247 108 -314 234 -38 70 -38 72
-38 186 0 114 1 117 38 192 35 71 37 81 37 169 0 176 46 372 114 484 41 67
177 210 243 253 133 89 293 152 433 172 92 13 261 4 356 -19z m-341 -1646 c28
-13 66 -40 84 -59 l34 -35 44 40 c64 59 124 83 208 83 114 0 199 -55 246 -158
l18 -41 -50 -7 c-63 -10 -100 -29 -147 -76 -95 -95 -110 -244 -36 -353 19 -28
34 -54 34 -58 0 -17 -136 -115 -189 -136 -93 -38 -137 -40 -220 -12 -75 26
-119 52 -189 113 l-41 35 33 44 c43 55 59 105 59 175 0 131 -105 248 -239 268
l-43 7 18 41 c23 50 75 110 112 130 77 39 182 39 264 -1z m-532 -140 c28 -6
29 -7 22 -55 -6 -44 -4 -50 17 -63 13 -8 53 -18 89 -22 72 -7 107 -25 144 -75
34 -46 35 -132 3 -180 -40 -58 -71 -74 -152 -78 -62 -3 -80 0 -122 21 -61 31
-87 59 -115 122 -25 56 -30 145 -11 210 15 54 68 136 84 131 7 -3 26 -7 41
-11z m1424 -99 c10 -28 17 -80 17 -116 0 -153 -101 -262 -244 -262 -116 0
-181 55 -188 160 -3 51 0 62 28 104 34 51 58 63 150 74 87 11 94 17 87 80 l-5
53 41 9 c39 9 44 8 69 -21 15 -17 35 -54 45 -81z m-1347 -500 c30 -4 75 -3
100 2 43 7 47 6 97 -34 200 -163 340 -212 474 -169 89 28 243 123 299 185 25
27 26 27 97 17 61 -8 80 -7 137 11 60 18 66 18 66 3 0 -29 -46 -116 -92 -172
-43 -52 -45 -58 -52 -139 -13 -156 -68 -209 -219 -210 -123 0 -187 47 -187
139 l0 31 -139 0 -139 0 -7 -37 c-18 -97 -70 -133 -189 -133 -90 0 -153 24
-186 71 -18 24 -26 55 -34 130 -10 93 -13 100 -48 136 -43 44 -98 145 -98 179
0 22 1 22 33 9 17 -7 57 -16 87 -19z"/>
<path d="M1954 3071 c-46 -28 -64 -59 -64 -112 0 -135 183 -179 245 -59 8 16
15 48 15 71 0 35 -6 48 -39 80 -33 33 -45 39 -82 39 -26 0 -57 -8 -75 -19z"/>
<path d="M2919 3051 c-35 -35 -39 -44 -39 -91 0 -47 4 -56 39 -91 33 -33 45
-39 82 -39 49 0 101 27 120 61 15 29 16 108 0 137 -19 35 -70 62 -120 62 -37
0 -49 -6 -82 -39z"/>
<path d="M2028 2613 c-44 -28 -60 -81 -37 -126 49 -96 189 -64 189 43 0 81
-83 126 -152 83z"/>
<path d="M2886 2609 c-14 -11 -30 -35 -34 -52 -31 -117 131 -178 187 -70 47
91 -71 186 -153 122z"/>
</g>
</svg>
